<svg xmlns="http://www.w3.org/2000/svg" viewBox="0 0 32 32" width="32" height="32">
  <!-- Fondo circular -->
  <circle cx="16" cy="16" r="16" fill="#5E3B00"/>
  
  <!-- Hoja principal -->
  <path d="M16 6c-4 0-7 3-7 7c0 3 2 5.5 4.5 6.5c1 0.5 2 0.5 3 0.5s2 0 3-0.5C22 18.5 23 16 23 13c0-4-3-7-7-7z" fill="#8FBC8F"/>
  
  <!-- Vena de la hoja -->
  <path d="M16 7c0 0 0 6 0 12" stroke="#228B22" stroke-width="1" fill="none"/>
  
  <!-- Frutos secos (almendras) -->
  <ellipse cx="12" cy="20" rx="1.5" ry="2.5" fill="#DEB887" transform="rotate(-15 12 20)"/>
  <ellipse cx="20" cy="20" rx="1.5" ry="2.5" fill="#DEB887" transform="rotate(15 20 20)"/>
  
  <!-- Semillas -->
  <circle cx="14" cy="24" r="1" fill="#CD853F"/>
  <circle cx="18" cy="24" r="1" fill="#CD853F"/>
  <circle cx="16" cy="26" r="0.8" fill="#8B4513"/>
</svg>
