<svg width="35" height="35" viewBox="0 0 35 35" fill="none" xmlns="http://www.w3.org/2000/svg">
<path d="M29.3704 15.0063L8.74958 2.65417C8.30855 2.39949 7.80852 2.26474 7.29924 2.26332C6.78996 2.26189 6.28918 2.39384 5.84673 2.64604C5.40428 2.89824 5.03557 3.26189 4.7773 3.70082C4.51902 4.13976 4.38017 4.63867 4.37458 5.14792L4.37458 29.8521C4.38017 30.3613 4.51902 30.8602 4.7773 31.2992C5.03557 31.7381 5.40428 32.1018 5.84673 32.354C6.28918 32.6062 6.78996 32.7381 7.29924 32.7367C7.80852 32.7353 8.30855 32.6005 8.74958 32.3458L29.3704 19.9938C29.799 19.7338 30.1534 19.3677 30.3993 18.9309C30.6452 18.4941 30.7744 18.0013 30.7744 17.5C30.7744 16.9987 30.6452 16.5059 30.3993 16.0691C30.1534 15.6323 29.799 15.2662 29.3704 15.0063Z" stroke="#088714" stroke-width="4" stroke-linecap="round" stroke-linejoin="round"/>
</svg>
